<svg xmlns="http://www.w3.org/2000/svg" xmlns:xlink="http://www.w3.org/1999/xlink"><defs>
<filter id="filter0_d" x="0.23999" y="0.0549927" width="1157.37" height="292.39" filterUnits="userSpaceOnUse" color-interpolation-filters="sRGB">
<feFlood flood-opacity="0" result="BackgroundImageFix"/>
<feColorMatrix in="SourceAlpha" type="matrix" values="0 0 0 0 0 0 0 0 0 0 0 0 0 0 0 0 0 0 127 0"/>
<feOffset dy="4"/>
<feGaussianBlur stdDeviation="25"/>
<feColorMatrix type="matrix" values="0 0 0 0 0.513726 0 0 0 0 0.45098 0 0 0 0 0.631373 0 0 0 0.6 0"/>
<feBlend mode="normal" in2="BackgroundImageFix" result="effect1_dropShadow"/>
<feBlend mode="normal" in="SourceGraphic" in2="effect1_dropShadow" result="shape"/>
</filter>
</defs><symbol id="YOGA" viewBox="0 0 1158 293">
<g filter="url(#filter0_d)">
<path d="M151.205 235V150.2L223.02 49.5H190.16L137.16 124.495L84.16 49.5H50.24L122.055 150.995V235H151.205ZM368.72 191.54C356.265 178.29 350.17 161.86 350.17 142.25C350.17 122.64 356.265 106.21 368.72 93.225C381.175 79.975 396.545 73.35 414.83 73.35C433.115 73.35 448.485 79.975 460.94 93.225C473.395 106.21 479.755 122.64 479.755 142.25C479.755 161.86 473.395 178.29 460.94 191.54C448.485 204.525 433.115 211.15 414.83 211.15C396.545 211.15 381.175 204.525 368.72 191.54ZM482.67 210.885C500.69 192.335 509.7 169.545 509.7 142.25C509.7 114.955 500.69 92.165 482.67 73.88C464.65 55.33 442.125 46.055 414.83 46.055C387.535 46.055 365.01 55.33 346.99 73.88C329.235 92.165 320.225 114.955 320.225 142.25C320.225 169.545 329.235 192.335 346.99 210.885C365.01 229.17 387.535 238.445 414.83 238.445C442.125 238.445 464.65 229.17 482.67 210.885ZM729.085 238.445C760.09 238.445 787.915 225.46 803.02 207.44V127.94H773.87V195.515C763.005 205.85 747.9 211.15 729.085 211.15C710.27 211.15 694.635 204.79 681.65 192.335C668.93 179.615 662.57 162.92 662.57 142.515C662.57 122.11 669.195 105.68 682.18 92.695C695.165 79.71 711.86 73.35 732 73.35C751.875 73.35 770.425 79.18 787.385 90.84V61.955C771.75 51.355 752.67 46.055 730.145 46.055C702.32 46.055 679 55.065 660.45 73.35C641.9 91.37 632.625 114.425 632.625 142.25C632.625 170.075 641.9 193.13 660.185 211.415C678.735 229.435 701.79 238.445 729.085 238.445ZM948.35 235L968.225 188.89H1056.2L1076.34 235H1107.61L1026.52 48.44H998.435L917.345 235H948.35ZM1012.21 85.275L1046.13 163.185H978.295L1012.21 85.275Z" fill="white"/>
</g>

</symbol><symbol id="fb" viewBox="0 0 6 11">
<path d="M1.09903 2.1101C1.09903 2.38467 1.09903 3.61019 1.09903 3.61019H0V5.44451H1.09903V10.8954H3.35667V5.44466H4.87165C4.87165 5.44466 5.01354 4.56512 5.08231 3.60343C4.88513 3.60343 3.36521 3.60343 3.36521 3.60343C3.36521 3.60343 3.36521 2.53628 3.36521 2.34923C3.36521 2.16178 3.61136 1.90963 3.85465 1.90963C4.09748 1.90963 4.61 1.90963 5.08469 1.90963C5.08469 1.65988 5.08469 0.796959 5.08469 6.55242e-09C4.45099 6.55242e-09 3.73004 6.55242e-09 3.41225 6.55242e-09C1.04322 -0.000126652 1.09903 1.83601 1.09903 2.1101Z"/>
</symbol><symbol id="left-btn" viewBox="0 0 6 9">
<path d="M5 8L1 4.5L5 1" stroke="#8E80A9"/>
</symbol><symbol id="left" viewBox="0 0 6 9">
<path d="M5 8L1 4.5L5 1" stroke="#FFFFFF"/>
</symbol><symbol id="right-btn" viewBox="0 0 6 9">
<path d="M1 1L5 4.5L1 8" stroke="#8E80A9"/>
</symbol><symbol id="right" viewBox="0 0 6 9">
<path d="M1 1L5 4.5L1 8" stroke="#FFFFFF"/>
</symbol><symbol id="twitter" viewBox="0 0 16 11">
<path d="M13.3758 4.62004C14.223 4.55015 14.7977 4.16499 15.0189 3.6424C14.7133 3.83013 13.7646 4.03481 13.2406 3.83988C13.215 3.71678 13.1863 3.59986 13.1581 3.49429C12.7589 2.02838 11.392 0.847392 9.95978 0.990062C10.0757 0.943277 10.1932 0.899718 10.3104 0.860614C10.468 0.804149 11.393 0.653658 11.2473 0.32718C11.1245 0.0400164 9.99446 0.544201 9.78168 0.6101C10.0626 0.504465 10.5271 0.322761 10.5769 0C10.1465 0.0590249 9.7241 0.262473 9.39768 0.5583C9.51552 0.431447 9.60492 0.276853 9.6239 0.110475C8.47614 0.84371 7.80567 2.32196 7.26308 3.75592C6.83703 3.34303 6.45941 3.01788 6.12065 2.83734C5.17031 2.32772 4.03402 1.796 2.25031 1.13385C2.19556 1.724 2.54218 2.50868 3.54095 3.03051C3.32456 3.00154 2.92884 3.06618 2.61235 3.14197C2.74124 3.81803 3.16217 4.37504 4.30172 4.64438C3.78094 4.67875 3.5118 4.79726 3.26788 5.05268C3.50507 5.52288 4.08386 6.07627 5.12503 5.96268C3.96746 6.4616 4.65304 7.38555 5.59496 7.24776C3.98811 8.90744 1.45474 8.78546 0 7.3973C3.79823 12.5728 12.0547 10.4581 13.2851 5.47308C14.207 5.48094 14.7489 5.15376 15.085 4.79305C14.5538 4.88318 13.784 4.79003 13.3758 4.62004Z"/>
</symbol><symbol id="vk" viewBox="0 0 13 8">
<path d="M12.8841 7.1355C12.8492 7.0724 12.633 6.56585 11.593 5.52472C10.5041 4.43452 10.6504 4.61154 11.9619 2.72647C12.7606 1.57842 13.08 0.877323 12.98 0.577604C12.8849 0.291906 12.2975 0.367274 12.2975 0.367274L10.3441 0.379543C10.3441 0.379543 10.1994 0.35851 10.0914 0.427744C9.98654 0.496101 9.9191 0.653848 9.9191 0.653848C9.9191 0.653848 9.60952 1.54249 9.19674 2.29792C8.32648 3.89204 7.97789 3.97617 7.8357 3.87714C7.50498 3.64666 7.58787 2.94994 7.58787 2.45567C7.58787 0.910625 7.80482 0.266491 7.16452 0.0999807C6.95163 0.0447692 6.79562 0.00796159 6.25202 0.00182698C5.55484 -0.00606037 4.96411 0.0044561 4.63015 0.180607C4.40751 0.298041 4.23606 0.560076 4.34088 0.574975C4.47007 0.593378 4.7626 0.659983 4.91779 0.887839C5.1185 1.18142 5.11118 1.84221 5.11118 1.84221C5.11118 1.84221 5.22657 3.66068 4.84223 3.88678C4.57814 4.0419 4.21655 3.72553 3.44056 2.27864C3.04322 1.53811 2.74257 0.7187 2.74257 0.7187C2.74257 0.7187 2.68488 0.566211 2.58168 0.484708C2.45655 0.385678 2.28104 0.354129 2.28104 0.354129L0.423525 0.366398C0.423525 0.366398 0.144817 0.375162 0.0424345 0.505741C-0.0485722 0.622299 0.0351215 0.862424 0.0351215 0.862424C0.0351215 0.862424 1.4896 4.53179 3.13585 6.38182C4.6464 8.0776 6.3609 7.9663 6.3609 7.9663H7.13771C7.13771 7.9663 7.37254 7.93825 7.49198 7.79891C7.60249 7.67096 7.59843 7.43083 7.59843 7.43083C7.59843 7.43083 7.58299 6.30645 8.06728 6.14081C8.54425 5.97781 9.15692 7.22752 9.80616 7.70864C10.2969 8.07234 10.6699 7.99259 10.6699 7.99259L12.4063 7.9663C12.4063 7.9663 13.3148 7.90583 12.8841 7.1355Z"/>
</symbol></svg>